<?xml version="1.0" standalone="no"?>
<!DOCTYPE svg PUBLIC "-//W3C//DTD SVG 20010904//EN"
 "http://www.w3.org/TR/2001/REC-SVG-20010904/DTD/svg10.dtd">
<svg version="1.0" xmlns="http://www.w3.org/2000/svg"
 width="83.000000pt" height="87.000000pt" viewBox="0 0 83.000000 87.000000"
 preserveAspectRatio="xMidYMid meet">

<g transform="translate(0.000000,87.000000) scale(0.100000,-0.100000)"
fill="#000000" stroke="none">
<path d="M320 829 c-55 -33 -99 -80 -128 -134 -23 -42 -27 -62 -27 -132 0 -46
-3 -83 -6 -83 -15 0 -87 -65 -112 -102 -36 -54 -50 -109 -41 -166 5 -38 15
-55 52 -91 70 -68 140 -96 242 -96 75 0 90 3 133 28 63 37 60 44 -5 11 -104
-53 -261 -29 -342 52 -86 86 -71 216 35 305 26 21 49 39 52 39 3 0 19 -25 36
-55 18 -32 51 -69 79 -90 44 -34 51 -35 112 -32 36 2 82 11 103 20 20 9 41 17
45 19 4 2 10 -10 13 -27 6 -29 7 -28 8 8 0 22 9 51 20 65 46 66 60 109 62 188
2 69 -2 87 -26 138 -33 68 -83 122 -131 142 -51 21 -133 18 -174 -7z m196 -21
c70 -47 108 -125 113 -230 3 -85 -11 -141 -49 -187 l-20 -24 -49 46 c-48 45
-111 85 -111 70 0 -5 20 -19 46 -32 44 -24 94 -73 94 -92 0 -6 -26 -22 -57
-37 -94 -42 -156 -30 -224 45 -35 39 -66 99 -56 109 12 12 84 23 117 18 29 -4
32 -3 16 6 -12 8 -39 10 -81 5 l-63 -6 -7 49 c-15 108 45 215 148 266 72 36
122 34 183 -6z"/>
<path d="M532 163 c-12 -20 -21 -37 -19 -40 3 -2 15 12 27 32 29 47 22 53 -8
8z"/>
</g>
</svg>
